<svg xmlns="http://www.w3.org/2000/svg" viewBox="0 0 25 25"><defs><style>.cls-1{fill:#23a2e8;}.cls-1,.cls-2{fill-rule:evenodd;}.cls-2{fill:#fff;}</style></defs><g id="Layer_2" data-name="Layer 2"><g id="Layer_1-2" data-name="Layer 1"><path class="cls-1" d="M12.06,0A12.5,12.5,0,1,1,0,12.94,12.5,12.5,0,0,1,12.06,0"/><path class="cls-2" d="M19,8.38,20.17,7A.78.78,0,0,0,20,5.86,12.49,12.49,0,0,0,4.51,6.4a.78.78,0,0,0,0,1.15L5.72,8.84a.79.79,0,0,0,1.07.06A8.73,8.73,0,0,1,8.93,7.57a.78.78,0,0,0,.47-.75l0-.76a.8.8,0,0,1,.59-.8,10.62,10.62,0,0,1,2.27-.32,10.75,10.75,0,0,1,2.28.16.79.79,0,0,1,.65.75l0,.77a.79.79,0,0,0,.53.71,9.15,9.15,0,0,1,2.23,1.18A.79.79,0,0,0,19,8.38m1.88,9.84a.8.8,0,0,1-.56.93c-4.14,1.38-10.89,1.35-15.16.53a.79.79,0,0,1-.62-.93l1.11-6.83a.81.81,0,0,1,.62-.64l2.62-.74c.42-.12,1-.37.94-.85l0-.57a.82.82,0,0,1,.66-.81l.43-.1a.8.8,0,0,1,.95.75l0,.93a.27.27,0,0,0,.27.25l.53,0a.26.26,0,0,0,.25-.27l0-.93a.79.79,0,0,1,.94-.8l.45.07a.8.8,0,0,1,.65.75l0,.58c0,.47.57.69,1,.77l2.72.57a.78.78,0,0,1,.61.59Zm-8.4-6.31a3.29,3.29,0,1,1-3.18,3.4A3.28,3.28,0,0,1,12.48,11.91Z"/><path class="cls-2" d="M10.45,15.86l0-1.18a.13.13,0,0,1,.13-.14l1.18,0a.13.13,0,0,0,.13-.14l0-1.18a.14.14,0,0,1,.13-.14l1.18,0a.15.15,0,0,1,.14.13l0,1.18a.13.13,0,0,0,.13.13l1.19,0a.13.13,0,0,1,.13.13l0,1.18a.13.13,0,0,1-.12.14l-1.19,0a.12.12,0,0,0-.12.13l0,1.19a.13.13,0,0,1-.13.13l-1.18,0a.13.13,0,0,1-.14-.12l0-1.19a.12.12,0,0,0-.14-.12l-1.18,0a.13.13,0,0,1-.13-.13"/></g></g></svg>