<svg xmlns="http://www.w3.org/2000/svg" viewBox="0 0 135.33 193.3"><defs><style>.cls-1{fill:#00c6ff;}.cls-2{fill:#ef2e07;}</style></defs><g id="Layer_2" data-name="Layer 2"><g id="Layer_1-2" data-name="Layer 1"><g id="Layer_1-2-2" data-name="Layer 1-2"><path class="cls-1" d="M85.54,1.71a3.36,3.36,0,0,1,2.65,1s.67,1,.91,1.32a1.67,1.67,0,0,0,1.58.65c1,0,1.5-.72,2-2.47,0,0,.12-.92-1.57-1.59a3.09,3.09,0,0,0-2-.08,8.23,8.23,0,0,1-2.8,0,12.49,12.49,0,0,0-6.38,1.33,12.31,12.31,0,0,0-5.61,6.83,28.41,28.41,0,0,0-1.72,6.54,36.48,36.48,0,0,0,.3,10.38C73.67,29.72,75,34.77,77,37.87a19.33,19.33,0,0,0,4.12,5c1.26,1,3.52,2.13,2.51,7s-2,9.81-2.75,12.06a12.2,12.2,0,0,1-4.7,6.41,13,13,0,0,1-8.63,2.11c-4.45-.21-5.87-.43-7.57-.36s-7.45.34-11.51,3.08a27.52,27.52,0,0,0-9,8.85c-2.55,4-5.6,9.39-6.52,11.31a83,83,0,0,0-5.14,13.26c-1.34,5.33-2.15,8.34-2.44,11.87s-.63,9.85.33,12.52,2.76,6,7,6.36,12.58-3,15-4l5.36-2.08c.37-.16,2.35-1.3,3.52.23s1.84,2,2.57,1.89,1.62-1.46,2.48-3.76a39.27,39.27,0,0,1,3-6.88,7.13,7.13,0,0,1,5.55-3.41c3.23-.14,11.73,0,11.73,0a5.33,5.33,0,0,1-1.45,2.35c-1,.74-5.4,2.55-5.61,3.1a27.69,27.69,0,0,0,10.69-1.32,77.31,77.31,0,0,0,11.14-4.42s-2.35,4.33-4,5.42a15.56,15.56,0,0,1-6,2.71,10.12,10.12,0,0,0-6.08,4,5.68,5.68,0,0,0,4.38.47c2.65-.7,4.12-2,6-2.16a19.43,19.43,0,0,1-3.65,5.45,31,31,0,0,1-8.64,6.35c-2.44,1-4.49,2.35-14.08,3.52V146a3.59,3.59,0,0,0,.4.72c.07.12,1.18,1.58.73,2.68s-1.17,1.63-4.07,2.93l-17.44,7.87-7.75,3.31s-1.84.67-1.71,2.35.43,1.81.43,1.81a5.62,5.62,0,0,1-1.42,0,17.22,17.22,0,0,0-7.24-1.18c-3.47.34-7.5,1.47-13.64,8.47s-8.31,11.15-9.75,12.63A13.57,13.57,0,0,1,0,190.46L3.59,192l9.65-3.43s1.29,4.06,3.52,4.57,3.85-.29,6-.81,1.17-.87,5.71.11S40.3,190.18,42,189l.25.73a8.46,8.46,0,0,0,3.77.76c1.52-.22,24.84-9.64,30.51-12.83s14.32-8,21.12-15.77a153.33,153.33,0,0,0,13-16.54c1.55-2.5,8.53-14,11.28-22.44a73.48,73.48,0,0,0,3.8-16.82c.4-4,1.17-12.66.2-17.93s-1.3-9.9-6.1-12.91-12.91,1.81-15.89,4.34A63,63,0,0,0,91.13,93.54a11.17,11.17,0,0,0-5.87-1.44c-2.76.32-5.55,4.7-6.48,8.05s-1.5,7.83-.11,11,4.55,4.43,10,1.77a24.05,24.05,0,0,0,10.89-10.36c2.35-4.12,3.09-7.49-.34-9.47A15.4,15.4,0,0,0,96,91.8l-.79-.66s1-1.78,1.35-2.2,7.66-9,13.5-11.39,8.68-2,11.37,1.33,3.28,16.17,3.28,16.17a92,92,0,0,1-1.08,14.82,119.75,119.75,0,0,1-5.21,17c-.89,2.09-5.37,11.38-6.29,13s-5.86,10-7.59,11.91-10,12.43-13.33,14.59-8.35,6.63-11.51,8.12-13.9,8.57-23.64,11.06c0,0-8.48,3.15-9.45,3.25s-2.35.58-2.65-2.34c-.19-.67-.41-1.32-.66-2,0,0-2.69,3.3-4.85,4.33a17.5,17.5,0,0,1-9.31,2c-.4,0-1.95-.17-1.95-.17s4.07-3.43,4.24-5,.22-2.6.22-2.6c-.69,0-1.37,0-2.05,0s-1-.16-2.46,1.56-1.89,3.92-3.28,4.91-4.63,3.14-6.63,2S15.11,189,16.53,186s1.59-3.37,1.59-3.37l-.72-.51s-7.61,6.45-9.81,6.94a8.21,8.21,0,0,1-3.74.42S9.39,181,11.1,179.19s6.44-7.64,9.56-9.22,5.62-3,9-2a16.15,16.15,0,0,1,6.67,3.64s.17.42,1.9.72c0,0-.94-3.9-1-4.28s-.69-2.24-.17-2.86.43-.95,2.35-1.29,10.41-4.57,12.32-5.29,12.23-5.78,12.23-5.78,4.24-1.55,4-3.2-.64-3-.64-3-.2-.25.16-.37l7-2.17c.16-.05,7.65-2.4,11.46-5.46s5.55-4.48,6.76-8.22.67-3.78,1.37-4.54a59.28,59.28,0,0,0,5.08-6.32c.31-.86.37-.46.13-2.86a5.79,5.79,0,0,0-2.7.32,86.14,86.14,0,0,1-13.67,6l2.73-6.48a24.53,24.53,0,0,1-5.33,1.29,93.89,93.89,0,0,1-9.51,0c-2.72-.25-5.93.41-8.21,5.26s-1.92,6.06-3,7.31-1.5.51-2.94-1.41-3.52.89-11.27,3.68-6.51,2.5-8.53,2.93-5.42.94-7-1-3.59-4.47-2.93-12.31,3.89-20.58,6.59-26S41,82.55,42.69,80.56s4.77-5.87,9.77-7.63A24.44,24.44,0,0,1,64,71.58c2.88.36,10.56.43,14.22-2.78s5.33-9.67,5.87-13,1.24-11.74,7.94-14c0,0,9.85-8.54,12.91-13.69s8-10,9.39-20.55c-2.5-8.07-7.3-7-13-7.6,0,0-1.17.09-2,2.49,0,0,.2,1.38.85,1.71a3.62,3.62,0,0,0,3.14-.68c1.17-.74,3.94-2.35,6-1.07s5.21,4.83,1.55,12.38c-4,7.61-8.68,15-12.9,19.27s-9,9.39-12.9,9.09-9.17-9.62-10-14.37-1.83-11.51.31-18.42A12.3,12.3,0,0,1,85.54,1.71Z"/></g><g id="Layer_1-2-3" data-name="Layer 1-2"><path class="cls-2" d="M94.49,1.71a3.4,3.4,0,0,1,2.66,1s.66,1,.9,1.32a1.67,1.67,0,0,0,1.58.65c1,0,1.5-.72,2-2.47,0,0,.12-.92-1.57-1.59a3.09,3.09,0,0,0-2-.08,8.17,8.17,0,0,1-2.79,0,12.51,12.51,0,0,0-6.39,1.33,12.35,12.35,0,0,0-5.61,6.83,28.41,28.41,0,0,0-1.72,6.54,36.48,36.48,0,0,0,.3,10.38c.78,4.09,2.08,9.14,4.13,12.24a19.33,19.33,0,0,0,4.12,5c1.26,1,3.52,2.13,2.51,7s-2,9.81-2.75,12.06a12.2,12.2,0,0,1-4.7,6.41,13,13,0,0,1-8.63,2.11c-4.45-.21-5.87-.43-7.57-.36s-7.45.34-11.51,3.08a27.39,27.39,0,0,0-8.94,8.85c-2.56,4-5.61,9.39-6.53,11.31a83,83,0,0,0-5.14,13.26c-1.34,5.33-2.15,8.34-2.44,11.87s-.63,9.85.33,12.52,2.76,6,7,6.36,12.58-3,15-4l5.36-2.08c.38-.16,2.35-1.3,3.52.23s1.84,2,2.57,1.89,1.62-1.46,2.48-3.76a39.27,39.27,0,0,1,3-6.88,7.13,7.13,0,0,1,5.55-3.41c3.23-.14,11.73,0,11.73,0a5.33,5.33,0,0,1-1.45,2.35c-1,.74-5.4,2.55-5.61,3.1a27.66,27.66,0,0,0,10.69-1.32,77.31,77.31,0,0,0,11.14-4.42s-2.35,4.33-4,5.42a15.56,15.56,0,0,1-6,2.71,10.06,10.06,0,0,0-6.07,4,5.65,5.65,0,0,0,4.37.47c2.65-.7,4.12-2,6-2.16a19.43,19.43,0,0,1-3.65,5.45,31.14,31.14,0,0,1-8.63,6.35c-2.44,1-4.5,2.35-14.08,3.52V146a3.13,3.13,0,0,0,.39.72c.07.12,1.18,1.58.73,2.68s-1.17,1.63-4.07,2.93l-17.44,7.87-7.75,3.31s-1.83.67-1.7,2.35.42,1.81.42,1.81a5.62,5.62,0,0,1-1.42,0,17.22,17.22,0,0,0-7.24-1.18c-3.46.34-7.5,1.47-13.64,8.47s-8.31,11.15-9.75,12.63A13.57,13.57,0,0,1,9,190.46L12.54,192l9.65-3.43s1.29,4.06,3.52,4.57,3.85-.29,6-.81,1.17-.87,5.71.11S49.25,190.18,51,189l.26.73a8.42,8.42,0,0,0,3.76.76c1.52-.22,24.84-9.64,30.51-12.83s14.32-8,21.12-15.77a153.33,153.33,0,0,0,13-16.54c1.55-2.5,8.53-14,11.28-22.44a73.48,73.48,0,0,0,3.8-16.82c.4-4,1.17-12.66.2-17.93s-1.3-9.9-6.1-12.91-12.91,1.81-15.89,4.34a63,63,0,0,0-12.79,13.94,11.17,11.17,0,0,0-5.87-1.44c-2.76.32-5.55,4.7-6.48,8.05s-1.5,7.83-.11,11,4.55,4.43,10,1.77a24.05,24.05,0,0,0,10.89-10.36c2.35-4.12,3.09-7.49-.34-9.47A15.4,15.4,0,0,0,105,91.8l-.79-.66s1-1.78,1.35-2.2,7.67-9,13.5-11.39,8.68-2,11.37,1.33,3.28,16.17,3.28,16.17a92,92,0,0,1-1.08,14.82,119.75,119.75,0,0,1-5.21,17c-.89,2.09-5.37,11.38-6.29,13s-5.86,10-7.59,11.91-10,12.43-13.33,14.59-8.35,6.63-11.51,8.12S74.76,183.14,65,185.63c0,0-8.48,3.15-9.45,3.25s-2.35.58-2.65-2.34a16.71,16.71,0,0,0-.66-2s-2.69,3.3-4.84,4.33a17.56,17.56,0,0,1-9.32,2c-.4,0-2-.17-2-.17s4.07-3.43,4.24-5,.22-2.6.22-2.6c-.68,0-1.37,0-2,0s-1-.16-2.46,1.56-1.89,3.92-3.28,4.91-4.62,3.14-6.63,2S24.06,189,25.48,186s1.59-3.37,1.59-3.37l-.72-.51s-7.61,6.45-9.81,6.94a8.21,8.21,0,0,1-3.74.42s5.54-8.49,7.25-10.28,6.44-7.64,9.56-9.22,5.63-3,9-2a16.15,16.15,0,0,1,6.67,3.64s.17.42,1.9.72c0,0-.93-3.9-1-4.28s-.69-2.24-.16-2.86.42-.95,2.34-1.29,10.41-4.57,12.32-5.29,12.23-5.78,12.23-5.78,4.24-1.55,4-3.2-.64-3-.64-3-.2-.25.16-.37l7-2.17c.16-.05,7.65-2.4,11.46-5.46s5.55-4.48,6.76-8.22.67-3.78,1.37-4.54a59.28,59.28,0,0,0,5.08-6.32c.31-.86.37-.46.13-2.86a5.79,5.79,0,0,0-2.7.32,86.14,86.14,0,0,1-13.67,6l2.73-6.48a24.39,24.39,0,0,1-5.33,1.29,93.89,93.89,0,0,1-9.51,0c-2.72-.25-5.93.41-8.21,5.26s-1.92,6.06-3,7.31-1.5.51-2.94-1.41-3.52.89-11.27,3.68-6.51,2.5-8.53,2.93-5.42.94-7-1-3.59-4.47-2.93-12.31,3.89-20.58,6.59-26,7.55-13.73,9.26-15.72,4.78-5.87,9.77-7.63A24.44,24.44,0,0,1,72.9,71.58c2.88.36,10.56.43,14.22-2.78s5.33-9.67,5.87-13,1.25-11.74,8-14c0,0,9.84-8.54,12.9-13.69s8-10,9.39-20.55c-2.5-8.07-7.3-7-13-7.6,0,0-1.17.09-2,2.49,0,0,.2,1.38.85,1.71a3.62,3.62,0,0,0,3.14-.68c1.18-.74,3.94-2.35,6-1.07s5.21,4.83,1.55,12.38c-4,7.61-8.68,15-12.89,19.27s-9,9.39-12.91,9.09-9.17-9.62-10-14.37S82,17.31,84.18,10.4A12.3,12.3,0,0,1,94.49,1.71Z"/></g></g></g></svg>