<svg width="152" height="151" viewBox="0 0 152 151" fill="none" xmlns="http://www.w3.org/2000/svg">
<path d="M145.312 139.199H139.5V77.8L141.203 79.4994C142.299 80.5559 143.768 81.1405 145.292 81.1273C146.816 81.1141 148.273 80.5041 149.351 79.4287C150.429 78.3533 151.04 76.8986 151.053 75.3779C151.067 73.8571 150.481 72.3921 149.422 71.2982L137.797 59.6982L79.6719 1.69816C78.5819 0.610829 77.1038 0 75.5625 0C74.0212 0 72.5431 0.610829 71.4531 1.69816L13.3281 59.6982L1.70306 71.2982C0.644269 72.3921 0.0584016 73.8571 0.0716449 75.3779C0.0848882 76.8986 0.696183 78.3533 1.77387 79.4287C2.85155 80.5041 4.3094 81.1141 5.83342 81.1273C7.35744 81.1405 8.82569 80.5559 9.92194 79.4994L11.625 77.8V139.199H5.8125C4.27093 139.199 2.7925 139.81 1.70244 140.898C0.612386 141.985 0 143.461 0 144.999C0 146.537 0.612386 148.012 1.70244 149.1C2.7925 150.188 4.27093 150.799 5.8125 150.799H145.312C146.854 150.799 148.333 150.188 149.423 149.1C150.513 148.012 151.125 146.537 151.125 144.999C151.125 143.461 150.513 141.985 149.423 140.898C148.333 139.81 146.854 139.199 145.312 139.199ZM23.25 66.2L75.5625 14L127.875 66.2V139.199H23.25V66.2Z" fill="black"/>
<path d="M104.625 57.9988H46.5C44.9584 57.9988 43.48 58.6098 42.3899 59.6975C41.2999 60.7852 40.6875 62.2605 40.6875 63.7988V121.799C40.6875 123.337 41.2999 124.812 42.3899 125.9C43.48 126.988 44.9584 127.599 46.5 127.599H104.625C106.167 127.599 107.645 126.988 108.735 125.9C109.825 124.812 110.438 123.337 110.438 121.799V63.7988C110.438 62.2605 109.825 60.7852 108.735 59.6975C107.645 58.6098 106.167 57.9988 104.625 57.9988ZM98.8125 115.999H52.3125V69.5988H98.8125V115.999Z" fill="black"/>
<path d="M63.9375 98.5988H69.75V104.399C69.75 105.937 70.3624 107.412 71.4524 108.5C72.5425 109.588 74.0209 110.199 75.5625 110.199C77.1041 110.199 78.5825 109.588 79.6726 108.5C80.7626 107.412 81.375 105.937 81.375 104.399V98.5988H87.1875C88.7291 98.5988 90.2075 97.9877 91.2976 96.9C92.3876 95.8123 93 94.337 93 92.7988C93 91.2605 92.3876 89.7853 91.2976 88.6975C90.2075 87.6098 88.7291 86.9988 87.1875 86.9988H81.375V81.1988C81.375 79.6605 80.7626 78.1853 79.6726 77.0975C78.5825 76.0098 77.1041 75.3988 75.5625 75.3988C74.0209 75.3988 72.5425 76.0098 71.4524 77.0975C70.3624 78.1853 69.75 79.6605 69.75 81.1988V86.9988H63.9375C62.3959 86.9988 60.9175 87.6098 59.8274 88.6975C58.7374 89.7853 58.125 91.2605 58.125 92.7988C58.125 94.337 58.7374 95.8123 59.8274 96.9C60.9175 97.9877 62.3959 98.5988 63.9375 98.5988V98.5988Z" fill="black"/>
</svg>
